<?xml version="1.0" encoding="UTF-8"?>
<svg id="Camada_2" data-name="Camada 2" xmlns="http://www.w3.org/2000/svg" viewBox="0 0 3227.49 2323.03">
  <defs>
    <style>
      .cls-1 {
        fill: #fff;
      }

      .cls-2 {
        fill: #ec6335;
      }
    </style>
  </defs>
  <g id="Camada_1-2" data-name="Camada 1">
    <g>
      <path class="cls-1" d="M2415.72,3.4c219.74-2.34,226.35-6.52,294.15.41,107.89,11.04,195.76,22.14,291.92,78.19,134.08,78.15,211.33,200.56,223.26,367.15,15.78,220.54-45.34,415.9-175.33,583.46-119.08,153.48-274.26,221.6-453.74,251.08-131.62,3.04-350.41-6.29-374.57-9.89-9.58-1.43-92.93-6.48-98.93-4.65-4.66,1.42-8.9,51.91-10.5,63.32-15.09,107.38-21.42,193.34-35.72,300.85-8.46,118.26-16.46,231.47-34.73,339.29-17.69,129.66-50.77,247.64-159.96,306.88-37.93,20.58-78.72,30.21-121.17,30.9-45.87.74-91.72,1.98-137.59,2.75-20.15.34-21.5-6.24-16.2-22.97,39.9-97.14,63.41-213.43,81.05-331.64,6.23-37.61,10.27-64.17,13.4-86.22,0,0,6.89-47.46,12.54-93.42,9.82-79.85,12.4-131.7,19.11-209.08,9.89-114.12,12.48-96.02,25.04-230.09,6.46-68.9,14.75-137.63,20.35-206.61,8.7-107.23,7.84-133.73,31.3-156.52,23.23-22.56,74.76-21.09,176.87-17.22,179.71,6.81,269.84,10.23,283.3,10.96,69.45,3.73,91.43,5.08,130.7,5.48,131.68,1.33,173.32-10.97,194.73-18.54,19.5-6.9,64.14-22.92,107.82-62.09,52.95-47.48,87.19-113.63,104.93-196.03,12.4-57.59,17.74-116.63,8.75-175.23-13.68-89.2-58.83-138.62-139.15-157.77-14.38-3.43-33.59-8.65-94.99-11.4-42.24-1.9-82.37-3.7-139.08-.12-75.12,4.73-149.45,17.01-149.45,17.01-18.52,1.57-83.35,15.39-83.74,18.12-9.9,68.19-18.76,136.54-28.17,204.81-8.01,58.13-16.16,116.24-24.03,174.4-.34,2.5-.62,9.58-5.69,14.17-2.55,2.31-5.32,3.12-6.93,3.55-18.69,5.04-40.17,3.91-40.17,3.91-17.77-.93-26.65-1.39-29.73-1.65-22.57-1.86-42.49-3.81-45.76-4.36-88.43-14.97-198.08-92.57-196.57-191.3,1.01-66.31,4.54-127.35,14.36-196.34,0,0,2.61-145.92,30.12-235.14,3.21-10.4,9.45-28.74,24.02-47.77,22.14-28.9,49.98-41.7,60.61-46.58C2094.07,6.83,2415.72,3.4,2415.72,3.4Z"/>
      <path class="cls-1" d="M776.4,1969.43c154.59-32.03,256.11-123.82,293.51-280.39,21.56-90.27,61.76-167.29,118.88-237.03,32.42-39.58,67.53-76.51,103.68-112.39,18.14-18,37.54-18.51,53.48,1.23,53.92,66.77,98,140.02,122.71,223.52,16.18,54.67,2.55,108.43-13.89,161.24-40.91,131.46-102.96,250.53-198.21,348.62-125.12,128.84-276.15,208.29-450.63,237.34-161.65,26.92-318.87,6.62-468.06-63.38-174.04-81.67-275.73-225.22-320.46-414.04-7.75-32.71-11.54-66.44-16.64-99.79-3.56-23.29,4.87-33.32,28.1-33.39,43.99-.14,88.03-1.4,131.92,1.01,68.08-1.86,199.32-1.01,208.21-1.01,37.92.81,26.21,6.78,38.17,43.16,23.08,70.17,55.31,133.96,116.72,177.37,61.91,43.77,131.18,57.87,204.84,53.64,15.4-.88,30.71-3.57,47.66-5.72Z"/>
      <path class="cls-1" d="M18.31,1541.78c1.36-28.53,4.45-57.6,6.24-88.13,6.73-72.58,13.52-143.39,20.06-214.23,6.3-68.31,12.16-136.66,18.53-204.97,7.73-82.84,15.97-165.62,23.65-248.46,6.39-68.94,12.08-137.95,18.47-206.89,7.61-82.22,15.8-164.39,23.41-246.61,6.44-69.57,12.3-139.2,18.65-208.78,3.23-35.42,7.15-70.78,10.33-106.21.87-9.69,5.36-13.26,14.03-13.26,50.69-.03,101.52-2.7,152.03.39,47.04,2.88,84.29,28.87,111.7,69.37,39.47,58.32,53.95,125.75,61.78,195.17,11.67,103.57,5.53,206.81-5.33,310.11-14.15,134.59-26.31,269.41-39.82,404.07-13.38,133.39-27.43,266.7-41.04,400.06-4.84,47.4-9.44,94.84-13.66,142.31-1.05,11.76-5.45,16.49-16.99,16.51"/>
      <path class="cls-2" d="M1182.18,664.01c8.57-74.96,18.04-148.11,25.27-221.51,7.56-76.71,10.09-154.42,49.52-222.91,43.86-76.18,97.64-143.6,160.55-202.54,24.17-22.65,43.35-22.28,63.13.57,56.32,65.05,100.64,137.79,126.81,222.74,12.31,39.95,4.07,78.42-.43,117.3-11.91,103.05-24.9,205.95-37.4,308.92-1.46,12.01-2.44,24.08-3.99,36.08-1.17,9.12-3.7,17.55-13.48,20.66-7.94-1.67-8.89-9.6-11.85-15.5-26.55-52.97-51.43-106.98-86.89-154.27-10.89-14.53-22.71-28.11-35.68-40.53-21.49-20.58-38.76-20.34-59.79,1.3-55.74,57.36-105.77,119.95-150.57,187.3-5.97,8.97-11.14,23.96-23.65,18.43-11.31-4.99-4.36-19.47-4.4-29.74-.03-8.19,1.77-16.39,2.84-26.29Z"/>
      <path class="cls-2" d="M1118.34,1285.72c11.33-111.1,22.06-220.52,33.31-329.88,3.89-37.78,22.43-69.02,41.51-99.71,42.32-68.05,91.38-130.03,148.21-184.68,27.55-26.5,45.01-26.93,69.63,2.07,56.65,66.76,104.88,139.34,127.29,228.18,11.58,45.92,3.96,91.25-2.18,136.61-12.22,90.19-19.7,180.98-29.1,271.52-1.62,15.64-3.24,31.28-5.15,46.87-.87,7.14-1.61,15.29-10.17,16.6-9.38,1.43-12.28-6.6-15.44-13.9-25.5-58.92-59.44-112.08-97.77-162.18-7.39-9.66-15.43-18.86-23.92-27.41-21.33-21.48-37.4-22.48-60.39-3.29-31.62,26.39-57.66,58.82-83.6,91.19-27.15,33.88-52.12,69.6-75.98,106.23-4.37,6.71-8.95,16.64-18.36,12.75-9.91-4.09-5.49-14.93-4.88-22.83,1.72-22.19,4.34-44.3,6.99-68.15Z"/>
    </g>
  </g>
</svg>